<svg id="레이어_1" data-name="레이어 1" xmlns="http://www.w3.org/2000/svg" viewBox="0 0 298.45 98.15"><defs><style>.cls-1{fill:#ffa300;}</style></defs><path class="cls-1" d="M19.88,66.63a8.24,8.24,0,0,0,1.55,5.75,7.39,7.39,0,0,0,2.7,1.46,7.31,7.31,0,0,0,3.05.21l14.72-.58c4.71,0,9.6-.63,14.77-1.09,1,0,1.67,0,2,.35a3.91,3.91,0,0,1,.69,2.12l1,12c0,1,0,1.66-.51,1.95a6.72,6.72,0,0,1-2.19.63c-6.78.52-13.39,1-19.71,1.27s-12.76.46-19.37.46a17.24,17.24,0,0,1-14.2-5.29A27,27,0,0,1,.11,68.64V38.81c0-1,0-1.72.63-2.07a3.21,3.21,0,0,1,2.07-.51H33.62a3.28,3.28,0,0,0,2.07-.52,2.7,2.7,0,0,0,.53-1,2.73,2.73,0,0,0,.1-1.1V22.89c0-2.64-.46-4.31-1.38-5.06a6.14,6.14,0,0,0-4-1.15H2.81a3.21,3.21,0,0,1-2.07-.51c-.46-.35-.63-1-.63-2.07V2.6c0-1,0-1.72.63-2.07A3.28,3.28,0,0,1,2.81,0H41.67a21,21,0,0,1,6.72,1A9,9,0,0,1,52.93,4,13.61,13.61,0,0,1,55.4,9.5a37.17,37.17,0,0,1,.75,8.22V50.54a2.67,2.67,0,0,1-.07,1.09,2.76,2.76,0,0,1-.5,1,3.52,3.52,0,0,1-2.07.52H22.64a3.21,3.21,0,0,0-2.07.51,2.88,2.88,0,0,0-.53,1,2.73,2.73,0,0,0-.1,1.1ZM98.63,49.39c0,1,0,1.72-.63,2.07a3.28,3.28,0,0,1-2.07.52H86.44V93.25a2.57,2.57,0,0,1-.1,1.1,2.88,2.88,0,0,1-.53,1,3.21,3.21,0,0,1-2.07.51H69.26a3.21,3.21,0,0,1-2.07-.51,2.74,2.74,0,0,1-.54-1,2.92,2.92,0,0,1-.1-1.1V2.66a2.91,2.91,0,0,1,.1-1.1,2.58,2.58,0,0,1,.54-1A3.22,3.22,0,0,1,69.26.07H83.63A3.25,3.25,0,0,1,85.7.59a2.72,2.72,0,0,1,.63,2.07V35.25h9.48a3.16,3.16,0,0,1,2.07.52c.46.34.63,1,.63,2.07Z"/><path class="cls-1" d="M164.1,45.88a109.23,109.23,0,0,1-1.61,19.37,44,44,0,0,1-5.18,14.43,24.27,24.27,0,0,1-9.31,9.2,33.91,33.91,0,0,1-28.33,0,23.53,23.53,0,0,1-9.37-9,41.45,41.45,0,0,1-5.18-14.42,118,118,0,0,1,0-38.8A41.57,41.57,0,0,1,110.3,12.2a23.83,23.83,0,0,1,9.37-9,33.81,33.81,0,0,1,28.33,0,24.6,24.6,0,0,1,9.37,9,44,44,0,0,1,5.18,14.43A109.88,109.88,0,0,1,164.1,45.88Zm-19.37,0a82.63,82.63,0,0,0-1.1-15.23,28.63,28.63,0,0,0-2.75-8.74,8.43,8.43,0,0,0-3.57-4,7,7,0,0,0-7.13,0,8.76,8.76,0,0,0-3.56,4,32.36,32.36,0,0,0-2.76,8.74,106.84,106.84,0,0,0,0,30.41,32.18,32.18,0,0,0,2.76,8.73,9,9,0,0,0,3.56,4,7.37,7.37,0,0,0,7.13,0,8.63,8.63,0,0,0,3.57-4,28.49,28.49,0,0,0,2.75-8.73,81.21,81.21,0,0,0,1.15-15.18ZM175,96.12A3.43,3.43,0,0,1,173,95.6a2.74,2.74,0,0,1-.58-2.07V2.66a2.73,2.73,0,0,1,.08-1.1,2.8,2.8,0,0,1,.5-1A3.43,3.43,0,0,1,175,.07H189.5a3.22,3.22,0,0,1,2.07.52c.46.34.63,1,.63,2.07V93.71c0,1,0,1.72-.63,2.07a3.21,3.21,0,0,1-2.07.51Z"/><path class="cls-1" d="M205.71,60.77a2.73,2.73,0,0,1,.1-1.1,2.7,2.7,0,0,1,.53-1,3.32,3.32,0,0,1,2.07-.52h87.32a3.32,3.32,0,0,1,2.07.52,2.7,2.7,0,0,1,.53,1,2.73,2.73,0,0,1,.1,1.1V72.84a2.72,2.72,0,0,1-.63,2.07,3.25,3.25,0,0,1-2.07.52H280.61V95.55a2.87,2.87,0,0,1-.07,1.09,2.51,2.51,0,0,1-.51,1,3.42,3.42,0,0,1-2.07.52H263.48a3.16,3.16,0,0,1-2.07-.52c-.46-.34-.63-1-.63-2.06V75.43H243.53V95.55a2.52,2.52,0,0,1-.07,1.09,2.64,2.64,0,0,1-.5,1,3.43,3.43,0,0,1-2.07.52H226.41a3.16,3.16,0,0,1-2.07-.52c-.46-.34-.64-1-.64-2.06V75.43H208.59a3.22,3.22,0,0,1-2.07-.52,2.72,2.72,0,0,1-.63-2.07Zm6.21-33.45a2.72,2.72,0,0,1,.63-2.07,3.22,3.22,0,0,1,2.07-.52h56.62a14.41,14.41,0,0,0,0-1.61V21.57a4.75,4.75,0,0,0-.63-3.45,4.23,4.23,0,0,0-1.51-.8,4.12,4.12,0,0,0-1.71-.12H214.62a3.43,3.43,0,0,1-2.07-.52,2.68,2.68,0,0,1-.57-2.07V2.66a2.72,2.72,0,0,1,.07-1.1,2.8,2.8,0,0,1,.5-1,3.43,3.43,0,0,1,2.07-.52h65.7A11.08,11.08,0,0,1,288.71,3a13,13,0,0,1,2.82,9.43,76.28,76.28,0,0,1-.4,9.2c-.4,3.45-.63,6.84-1.09,10.4s-1,7-1.61,10.46-1.27,6.55-1.9,9.31a4.63,4.63,0,0,1-.92,2.13c-.35.4-1.09.52-2.24.4l-13.68-1.55a3.82,3.82,0,0,1-2.19-1,2.72,2.72,0,0,1-.4-2.47,16.08,16.08,0,0,1,.69-3.56c.29-1.21.46-2.42.63-3.57H214.33a3.2,3.2,0,0,1-2.06-.51,2.67,2.67,0,0,1-.64-2.07Z"/></svg>